<?xml version="1.0" encoding="UTF-8"?>
<svg width="1200pt" height="1200pt" version="1.1" viewBox="0 0 1200 1200" xmlns="http://www.w3.org/2000/svg">
 <g>
  <path d="m988 806.67h-261.33c-13.332 0-24 10.668-24 24s10.668 24 24 24h261.33c13.332 0 24-10.668 24-24 1.332-13.336-10.668-24-24-24z"/>
  <path d="m986.67 868h-258.67c-13.332 0-24 10.668-24 24s10.668 24 24 24h258.67c13.332 0 24-10.668 24-24s-10.668-24-24-24z"/>
  <path d="m952 929.33h-189.33c-13.332 0-24 10.668-24 24s10.668 24 24 24h190.67c13.332 0 24-10.668 24-24-0.003907-12-12.004-24-25.336-24z"/>
  <path d="m857.33 122.67c-169.33 0-293.33 124-293.33 296 0 102.67 53.332 170.67 96 224 24 30.668 45.332 57.332 48 80l9.332 68h45.332l-10.668-80c-4-33.332-26.668-62.668-54.668-97.332-40-50.668-84-106.67-84-193.33 0-146.67 100-248 245.33-248 144 0 245.33 101.33 245.33 248 0 86.668-45.332 142.67-84 193.33-26.668 34.668-50.668 64-54.668 97.332l-10.668 80h45.332l9.332-68c2.668-22.668 22.668-49.332 48-80 42.668-54.668 96-121.33 96-224-2.6523-170.67-126.65-296-295.99-296z"/>
  <path d="m913.33 478.67-92-62.668 50.668-74.668-112 90.668 90.668 60-61.336 96z"/>
  <path d="m934.67 696c6.668-33.332 28-70.668 81.332-133.33 64-76 86.668-238.67-40-328 138.67 166.67 33.332 294.67 6.668 328-37.336 45.332-50.668 109.33-48 133.33z"/>
  <path d="m456 288v-26.668c0-25.332-20-45.332-45.332-45.332h-57.332c-2.668 0-5.332-2.668-5.332-5.332v-5.332c0-25.332-20-45.332-45.332-45.332h-112c-25.332 0-45.332 20-45.332 45.332v5.332c0 2.668-2.668 5.332-5.332 5.332h-57.34c-25.332 0-45.332 20-45.332 45.332v26.668c0 25.332 20 45.332 45.332 45.332h65.332v653.33c0 26.668 21.332 48 48 48h100c26.668 0 48-21.332 48-48v-653.33h65.332c25.336 0 46.668-20 46.668-45.332zm-141.33 708c0 5.332-4 9.332-9.332 9.332h-117.33c-5.332 0-9.332-4-9.332-9.332v-52h60c8 0 14.668-6.668 14.668-13.332 0-8-6.668-13.332-14.668-13.332h-60l-0.003906-24.004h60c8 0 14.668-6.668 14.668-13.332 0-6.668-6.668-13.332-14.668-13.332h-60v-22.668h60c8 0 14.668-6.668 14.668-13.332 0-8-6.668-13.332-14.668-13.332h-60v-22.668h60c8 0 14.668-6.668 14.668-13.332 0-8-6.668-13.332-14.668-13.332h-60v-22.668h60c8 0 14.668-6.668 14.668-13.332 0-8-6.668-13.332-14.668-13.332h-60v-25.34h60c8 0 14.668-6.668 14.668-13.332 0-8-6.668-13.332-14.668-13.332h-60v-22.668h60c8 0 14.668-6.668 14.668-13.332 0-8-6.668-13.332-14.668-13.332h-60v-22.668h60c8 0 14.668-6.668 14.668-13.332 0-8-6.668-13.332-14.668-13.332h-60v-22.668h60c8 0 14.668-6.668 14.668-13.332 0-6.668-6.668-13.332-14.668-13.332h-60v-25.34h60c8 0 14.668-6.668 14.668-13.332 0-8-6.668-13.332-14.668-13.332h-60v-22.668h60c8 0 14.668-6.668 14.668-13.332 0-8-6.668-13.332-14.668-13.332h-60v-22.668h60c8 0 14.668-6.668 14.668-13.332 0-6.668-6.668-13.332-14.668-13.332h-60v-41.332h136zm-232-693.33c-8 0-14.668-6.668-14.668-14.668v-26.668c0-8 6.668-14.668 14.668-14.668h57.332c20 0 36-16 36-36v-5.332c0-8 6.668-14.668 14.668-14.668h112c8 0 14.668 6.668 14.668 14.668v5.332c0 20 16 36 36 36h57.332c8 0 14.668 6.668 14.668 14.668v26.668c0 8-6.668 14.668-14.668 14.668z"/>
  <path d="m262.67 229.33c0 8.8359-7.1641 16-16 16-8.8359 0-16-7.1641-16-16 0-8.8359 7.1641-16 16-16 8.8359 0 16 7.1641 16 16"/>
  <path d="m530.67 529.33v-30.668c0-16-13.332-28-28-28h-12c-16 0-28 13.332-28 28v30.668l-57.336 97.336c-4 5.332-8 12-8 20v416c0 29.332 24 53.332 53.332 53.332h88c29.332 0 53.332-24 53.332-53.332l0.003906-416c0-8-4-13.332-8-18.668zm-34.668 14.668 56 100-8 5.332-16-12c-2.668-2.668-6.668-2.668-9.332 0l-22.668 13.332-22.668-13.332c-2.668-1.332-6.668-1.332-9.332 0l-16 10.668-8-5.332zm-74.668 94.668s1.3359-1.3359 0 0v0zm134.67 424c0 9.332-6.668 16-16 16h-88c-9.332 0-16-6.668-16-16v-45.332h120zm0-62.668h-120v-24h120zm0-42.668h-24v-276c0-5.332-4-9.332-9.332-9.332s-9.332 4-9.332 9.332v276h-36l-0.003907-276c0-5.332-4-9.332-9.332-9.332s-9.332 4-9.332 9.332v276h-24v-293.33l6.668 4c2.668 2.668 6.668 2.668 10.668 0l16-10.668 22.668 13.332c2.668 1.332 6.668 1.332 9.332 0l22.668-13.332 16 12c2.668 2.668 6.668 2.668 10.668 0l6.668-4zm13.332-318.66v0 0z"/>
 </g>
</svg>
